<?xml version="1.0" standalone="no"?>
<!DOCTYPE svg PUBLIC "-//W3C//DTD SVG 20010904//EN"
 "http://www.w3.org/TR/2001/REC-SVG-20010904/DTD/svg10.dtd">
<svg version="1.0" xmlns="http://www.w3.org/2000/svg"
 width="700.000000pt" height="140.000000pt" viewBox="0 0 700.000000 140.000000"
 preserveAspectRatio="xMidYMid meet">

<g transform="translate(0.000000,140.000000) scale(0.100000,-0.100000)"
fill="#000000" stroke="none">
<path d="M1120 1189 c-371 -109 -677 -198 -680 -199 -3 -1 18 -10 47 -20 101
-36 212 -126 353 -284 139 -157 242 -230 383 -271 63 -18 176 -22 205 -6 12 6
81 168 208 487 104 262 191 480 192 485 2 5 -5 8 -15 8 -10 -1 -322 -91 -693
-200z"/>
<path d="M2405 1080 c-87 -22 -155 -77 -181 -146 -25 -65 -15 -154 23 -208 38
-55 131 -101 253 -126 167 -35 220 -66 220 -132 0 -78 -57 -118 -167 -118
-126 0 -183 32 -205 114 l-12 46 -74 0 -75 0 7 -47 c9 -68 54 -142 110 -180
64 -44 174 -68 281 -60 194 14 299 103 299 252 0 141 -94 215 -324 255 -154
27 -218 88 -179 173 19 43 66 62 149 61 100 -1 136 -19 163 -85 l21 -49 74 0
74 0 -7 38 c-10 57 -58 134 -101 164 -21 15 -66 34 -99 43 -62 16 -198 19
-250 5z"/>
<path d="M3680 655 l0 -435 60 0 60 0 0 435 0 435 -60 0 -60 0 0 -435z"/>
<path d="M235 910 c-87 -27 -174 -161 -211 -325 -20 -88 -26 -356 -9 -387 9
-14 58 17 343 217 183 128 335 235 337 237 9 9 -146 159 -197 191 -97 62 -198
87 -263 67z"/>
<path d="M2980 868 c0 -2 45 -135 100 -297 110 -324 118 -369 77 -417 -18 -21
-35 -28 -75 -32 l-52 -5 0 -60 0 -60 76 6 c95 7 158 37 197 93 22 31 210 552
271 752 7 21 6 22 -68 22 l-74 0 -31 -97 c-16 -54 -49 -167 -73 -251 -23 -83
-45 -146 -49 -140 -4 7 -15 42 -24 78 -9 36 -39 143 -67 238 l-51 172 -78 0
c-44 0 -79 -1 -79 -2z"/>
<path d="M3901 863 c0 -4 48 -141 107 -303 l107 -295 83 0 84 0 109 299 c60
165 109 301 109 303 0 1 -33 3 -73 3 l-73 0 -52 -157 c-28 -87 -62 -194 -75
-238 l-24 -80 -27 90 c-14 50 -48 155 -74 235 l-48 145 -77 3 c-42 2 -77 -1
-76 -5z"/>
<path d="M4771 856 c-54 -19 -112 -75 -140 -135 -24 -51 -26 -67 -26 -176 0
-105 3 -127 24 -173 69 -153 276 -202 391 -93 l40 38 0 -39 0 -38 70 0 70 0 0
310 0 310 -70 0 -70 0 0 -42 0 -42 -32 32 c-18 17 -50 38 -70 46 -44 19 -139
20 -187 2z m217 -133 c52 -39 67 -79 67 -178 0 -72 -4 -97 -20 -124 -33 -56
-68 -76 -134 -76 -103 1 -151 62 -151 194 0 104 21 152 85 193 38 24 115 20
153 -9z"/>
<path d="M5575 854 c-16 -8 -45 -29 -62 -47 l-33 -31 0 42 0 42 -70 0 -70 0 0
-300 0 -300 75 0 75 0 0 198 c0 217 4 232 59 269 50 33 105 31 142 -6 l29 -29
0 -211 0 -211 75 0 75 0 0 185 c0 209 7 241 62 275 67 40 150 17 167 -48 6
-20 11 -121 11 -224 l0 -188 70 0 70 0 0 225 c0 236 -5 271 -48 319 -29 32
-93 56 -154 56 -72 0 -97 -10 -152 -61 l-45 -41 -33 38 c-18 20 -47 43 -65 50
-44 19 -141 18 -178 -2z"/>
<path d="M6587 856 c-132 -48 -205 -175 -194 -337 8 -127 62 -215 161 -267 43
-22 64 -26 136 -26 137 -1 217 46 271 158 47 98 48 241 2 330 -29 56 -93 115
-149 136 -64 23 -169 26 -227 6z m171 -120 c65 -34 92 -92 92 -195 -1 -125
-57 -195 -157 -195 -57 0 -90 17 -127 68 -17 22 -22 45 -24 119 -3 81 -1 97
20 136 38 72 128 102 196 67z"/>
</g>
</svg>
